<mxfile host="65bd71144e">
    <diagram id="i3m_a1qWC9031GqjxjHt" name="Page-1">
        <mxGraphModel dx="746" dy="419" grid="1" gridSize="10" guides="1" tooltips="1" connect="1" arrows="1" fold="1" page="1" pageScale="1" pageWidth="850" pageHeight="1100" math="0" shadow="0">
            <root>
                <mxCell id="0"/>
                <mxCell id="1" parent="0"/>
                <mxCell id="7" value="" style="edgeStyle=none;html=1;" edge="1" parent="1" source="5" target="6">
                    <mxGeometry relative="1" as="geometry"/>
                </mxCell>
                <mxCell id="9" value="" style="edgeStyle=none;html=1;" edge="1" parent="1" source="5" target="8">
                    <mxGeometry relative="1" as="geometry"/>
                </mxCell>
                <mxCell id="11" value="" style="edgeStyle=none;html=1;" edge="1" parent="1" source="5" target="10">
                    <mxGeometry relative="1" as="geometry"/>
                </mxCell>
                <mxCell id="13" value="" style="edgeStyle=none;html=1;" edge="1" parent="1" source="5" target="12">
                    <mxGeometry relative="1" as="geometry"/>
                </mxCell>
                <mxCell id="5" value="PROJECT" style="whiteSpace=wrap;html=1;aspect=fixed;strokeColor=default;" vertex="1" parent="1">
                    <mxGeometry x="360" y="270" width="80" height="80" as="geometry"/>
                </mxCell>
                <mxCell id="6" value="user" style="whiteSpace=wrap;html=1;" vertex="1" parent="1">
                    <mxGeometry x="340" y="120" width="120" height="60" as="geometry"/>
                </mxCell>
                <mxCell id="8" value="product" style="whiteSpace=wrap;html=1;" vertex="1" parent="1">
                    <mxGeometry x="180" y="280" width="120" height="60" as="geometry"/>
                </mxCell>
                <mxCell id="10" value="cart" style="whiteSpace=wrap;html=1;" vertex="1" parent="1">
                    <mxGeometry x="500" y="280" width="120" height="60" as="geometry"/>
                </mxCell>
                <mxCell id="12" value="order" style="whiteSpace=wrap;html=1;" vertex="1" parent="1">
                    <mxGeometry x="340" y="440" width="120" height="60" as="geometry"/>
                </mxCell>
            </root>
        </mxGraphModel>
    </diagram>
</mxfile>